<svg xmlns="http://www.w3.org/2000/svg" width="99.734" height="99.7" viewBox="0 0 99.734 99.7">
    <defs>
        <style>
            .cls-1{opacity:.5}.cls-2{fill:#fff}
        </style>
    </defs>
    <g id="analysis" class="cls-1">
        <g id="Group_184" data-name="Group 184" transform="translate(23.262 6.652)">
            <g id="Group_183" data-name="Group 183">
                <path id="Path_249" d="M67.076 32.106A34.893 34.893 0 1 1 32.182 67a34.894 34.894 0 0 1 34.894-34.894zm0 3.323a31.537 31.537 0 0 0-25.782 13.409l4.154 4.154a6.557 6.557 0 0 1 3.35-.947 6.646 6.646 0 0 1 6.646 6.646 6.558 6.558 0 0 1-.942 3.355l10.88 10.88a6.444 6.444 0 0 1 6.71 0l7.557-7.557a6.558 6.558 0 0 1-.942-3.355 6.633 6.633 0 0 1 13.057-1.662h6.165a31.615 31.615 0 0 0-30.853-24.923zm-21.6 23.262a3.323 3.323 0 1 0 3.324-3.323 3.323 3.323 0 0 0-3.325 3.323zm19.938 19.94a3.323 3.323 0 1 0 3.323-3.323 3.323 3.323 0 0 0-3.323 3.323zM82.03 62.015a3.323 3.323 0 1 0 3.323-3.323 3.323 3.323 0 0 0-3.323 3.323zM51.736 94.6a31.564 31.564 0 0 0 46.732-30.924h-6.7a6.647 6.647 0 0 1-6.41 4.985A6.558 6.558 0 0 1 82 67.719l-7.557 7.557a6.558 6.558 0 0 1 .942 3.355 6.646 6.646 0 0 1-13.293 0 6.558 6.558 0 0 1 .942-3.355L52.153 64.4a6.558 6.558 0 0 1-3.355.942 6.646 6.646 0 0 1-6.646-6.646 6.558 6.558 0 0 1 .942-3.355l-3.622-3.621A31.542 31.542 0 0 0 51.736 94.6z" class="cls-2" data-name="Path 249" transform="translate(-32.182 -32.106)"/>
            </g>
        </g>
        <g id="Group_186" data-name="Group 186">
            <g id="Group_185" data-name="Group 185">
                <path id="Path_250" d="M16.616 16.7a6.647 6.647 0 0 1-6.41-4.985H0V8.394h10.206a6.632 6.632 0 0 1 13.057 1.662 6.558 6.558 0 0 1-.942 3.355l2.919 2.919a41.54 41.54 0 1 1 10.372 60.16L30.6 81.5l-2.35 2.349-13.378 13.38A8.711 8.711 0 0 1 2.553 84.91l13.375-13.376 2.35-2.349 5.015-5.015a41.4 41.4 0 0 1 0-45.089l-3.323-3.323a6.559 6.559 0 0 1-3.354.942zm0-9.97a3.323 3.323 0 1 0 3.323 3.323 3.323 3.323 0 0 0-3.323-3.321zM4.9 87.259a5.389 5.389 0 1 0 7.533 7.707l.087-.087L25.9 81.5l-7.62-7.62zm15.727-15.725l7.62 7.62 4.6-4.6c-.234-.179-.454-.377-.685-.562s-.5-.405-.746-.613a41.726 41.726 0 0 1-1.075-.932c-.181-.166-.354-.332-.532-.5q-1.022-.957-1.979-1.979c-.166-.178-.332-.351-.5-.532a41.726 41.726 0 0 1-.932-1.075q-.312-.369-.613-.746c-.183-.229-.381-.449-.56-.683zm6.444-7.718a38.752 38.752 0 0 0 1.633 2.137c.166.2.344.4.515.593q.763.887 1.575 1.721.354.365.719.719.831.813 1.721 1.575c.2.166.392.347.593.515.69.57 1.406 1.11 2.137 1.633a38.276 38.276 0 1 0-8.895-8.895z" class="cls-2" data-name="Path 250" transform="translate(0 -.08)"/>
            </g>
        </g>
    </g>
</svg>
