<svg xmlns="http://www.w3.org/2000/svg" width="64.932" height="46.586" viewBox="0 0 64.932 46.586">
    <defs>
        <style>
            .cls-1{fill:#f9b845}
        </style>
    </defs>
    <g id="book" transform="translate(0 -58.304)">
        <g id="Group_78" data-name="Group 78" transform="translate(0 58.303)">
            <path id="Path_39" d="M63.673 62.18h-4.279v-1.46a1.259 1.259 0 0 0-.906-1.259 35.452 35.452 0 0 0-9.075-1.161c-5.034 0-11.894 1.133-16.966 6.293C27.412 59.386 20.5 58.3 15.481 58.3a35.452 35.452 0 0 0-9.075 1.158A1.259 1.259 0 0 0 5.5 60.72v1.447H1.259A1.259 1.259 0 0 0 0 63.426v40.2a1.256 1.256 0 0 0 1.875 1.095c.126-.063 12.712-6.948 30.282-2.517h.3a1.258 1.258 0 0 0 .3 0c17.62-4.468 30.207 2.4 30.282 2.517a1.259 1.259 0 0 0 1.888-1.082v-40.2a1.259 1.259 0 0 0-1.254-1.259zM2.517 101.625V64.7h3.008v31.563a1.259 1.259 0 0 0 1.447 1.259 55.076 55.076 0 0 1 7.866-.629 32.647 32.647 0 0 1 10.748 1.624 46.269 46.269 0 0 0-23.069 3.108zm12.322-7.237a55.374 55.374 0 0 0-6.847.441V61.714a34.713 34.713 0 0 1 7.464-.831c4.707 0 11.2 1.082 15.707 6.167L31.2 98.4c-2.617-1.709-7.727-4.012-16.361-4.012zm18.879-27.337c4.506-5.034 11-6.167 15.707-6.167a34.865 34.865 0 0 1 7.464.831v33.113a55.367 55.367 0 0 0-6.809-.453c-8.584 0-13.706 2.3-16.362 4.015zM62.4 101.625a46.278 46.278 0 0 0-23.121-3.109 32.724 32.724 0 0 1 10.8-1.624 55.059 55.059 0 0 1 7.921.617 1.259 1.259 0 0 0 1.447-1.259V64.7h3.008z" class="cls-1" data-name="Path 39" transform="translate(0 -58.303)"/>
        </g>
    </g>
</svg>
