<svg xmlns="http://www.w3.org/2000/svg" width="17.2" height="17.2" viewBox="0 0 17.2 17.2">
  <path id="Path_286" data-name="Path 286" d="M15.185,1.344h-.806V0H13.035V1.344H4.166V0H2.822V1.344H2.016A2.018,2.018,0,0,0,0,3.359V15.185A2.018,2.018,0,0,0,2.016,17.2H15.185A2.018,2.018,0,0,0,17.2,15.185V3.359A2.018,2.018,0,0,0,15.185,1.344Zm.672,13.841a.673.673,0,0,1-.672.672H2.016a.673.673,0,0,1-.672-.672V6.316H15.856Zm0-10.213H1.344V3.359a.673.673,0,0,1,.672-.672h.806V4.031H4.166V2.688h8.869V4.031h1.344V2.688h.806a.673.673,0,0,1,.672.672Z" fill="#2c4566"/>
</svg>
