<svg xmlns="http://www.w3.org/2000/svg" id="call-answer" width="32.1" height="32.027" viewBox="0 0 32.1 32.027">
    <defs>
        <style>
            .cls-1{fill:#f9b845}
        </style>
    </defs>
    <g id="Group_303" data-name="Group 303">
        <g id="Group_302" data-name="Group 302">
            <path id="Path_289" d="M31.38 25.725l-4.957-4.958a2.585 2.585 0 0 0-3.644.069l-2.5 2.5-.493-.274a24.854 24.854 0 0 1-6.007-4.345A24.992 24.992 0 0 1 9.427 12.7a30.28 30.28 0 0 0-.269-.481l1.676-1.674.824-.825a2.582 2.582 0 0 0 .066-3.645L6.768 1.113a2.582 2.582 0 0 0-3.644.069l-1.4 1.405.038.038a8.079 8.079 0 0 0-1.149 2.03A8.419 8.419 0 0 0 .1 6.715C-.554 12.142 1.926 17.1 8.656 23.831c9.3 9.3 16.8 8.6 17.123 8.565a8.376 8.376 0 0 0 2.065-.519 8.052 8.052 0 0 0 2.023-1.146l.031.027 1.415-1.386a2.587 2.587 0 0 0 .067-3.647z" class="cls-1" data-name="Path 289" transform="translate(0 -.394)"/>
        </g>
    </g>
</svg>
