<svg xmlns="http://www.w3.org/2000/svg" width="71.676" height="46.884" viewBox="0 0 71.676 46.884">
    <defs>
        <style>
            .cls-1{fill:#f9b845;stroke:#f9b845}
        </style>
    </defs>
    <g id="group" transform="translate(.5 -91.75)">
        <g id="Group_37" data-name="Group 37" transform="translate(0 92.25)">
            <path id="Path_17" d="M61.125 112.439a8.309 8.309 0 0 0 3.44-6.749 8.071 8.071 0 1 0-16.138 0 8.271 8.271 0 0 0 3.44 6.749A13.916 13.916 0 0 0 47.1 115.3a17.975 17.975 0 0 0-6.545-3.646 10.525 10.525 0 0 0 4.935-8.954 10.225 10.225 0 1 0-20.445 0 10.493 10.493 0 0 0 4.936 8.951 18.124 18.124 0 0 0-6.475 3.6 14.025 14.025 0 0 0-4.713-2.8 8.309 8.309 0 0 0 3.44-6.749 8.155 8.155 0 0 0-8.069-8.25A8.155 8.155 0 0 0 6.1 105.7a8.271 8.271 0 0 0 3.44 6.749A14.461 14.461 0 0 0 0 126.137v.944a.061.061 0 0 0 .056.057h17.1a19.658 19.658 0 0 0-.156 2.417v.972a7.521 7.521 0 0 0 7.44 7.607h21.68a7.521 7.521 0 0 0 7.44-7.607v-.972a19.656 19.656 0 0 0-.154-2.416H70.62a.061.061 0 0 0 .056-.057v-.944a14.516 14.516 0 0 0-9.551-13.699zm-10.46-6.763a5.833 5.833 0 1 1 5.943 5.962h-.224a5.892 5.892 0 0 1-5.72-5.962zm-23.41-2.976a7.987 7.987 0 1 1 8.446 8.15h-.923a8.1 8.1 0 0 1-7.523-8.15zm-18.962 2.976a5.9 5.9 0 0 1 5.831-5.962 5.966 5.966 0 0 1 .112 11.925h-.224a5.9 5.9 0 0 1-5.719-5.963zm9.257 19.16H2.265a12.053 12.053 0 0 1 11.775-10.91h.168a11.673 11.673 0 0 1 7.621 2.9 18.9 18.9 0 0 0-4.279 8.01zm33.744 5.691a5.27 5.27 0 0 1-5.2 5.319H24.416a5.27 5.27 0 0 1-5.2-5.319v-.972a16.26 16.26 0 0 1 15.564-16.4c.154.014.322.014.475.014s.322 0 .475-.014a16.26 16.26 0 0 1 15.564 16.4zm1.664-5.691a18.852 18.852 0 0 0-4.237-7.95 11.732 11.732 0 0 1 7.691-2.96h.168a12.053 12.053 0 0 1 11.775 10.91z" class="cls-1" data-name="Path 17" transform="translate(0 -92.25)"/>
        </g>
    </g>
</svg>
