<svg xmlns="http://www.w3.org/2000/svg" width="72.995" height="62.715" viewBox="0 0 72.995 62.715">
    <defs>
        <style>
            .cls-1{fill:#f9b845;stroke:#f9b845}
        </style>
    </defs>
    <g id="growth" transform="translate(.5 -6.937)">
        <path id="Path_13" d="M35.749 224.534a21.731 21.731 0 0 1-7.334-1.255l-11.1-4A49.21 49.21 0 0 0 4.7 216.56l-3.644-.3A1.062 1.062 0 0 1 0 215.292v-9.468a.866.866 0 0 1 .235-.583c.272-.3 6.8-7.369 16.781-5.53a47.508 47.508 0 0 1 12.932 4.405 15.142 15.142 0 0 0 6.9 1.6h11.1a5.645 5.645 0 0 1 4.534 2.1l9.558-9.12a10.983 10.983 0 0 1 8.058-3.3h.714a1.249 1.249 0 0 1 .982.44.831.831 0 0 1 .092.922l-8.644 16.272a14.984 14.984 0 0 1-10.293 7.19l-1.521.315-8.847 2.931a21.79 21.79 0 0 1-6.825 1.08zm-33.4-10.121l2.588.215a51.975 51.975 0 0 1 13.32 2.875l11.1 4a19.248 19.248 0 0 0 12.353.151l8.92-2.955a1.387 1.387 0 0 1 .152-.04l1.6-.331a12.684 12.684 0 0 0 8.715-6.087l7.885-14.841a8.267 8.267 0 0 0-5.114 2.514l-10.598 10.1v.113c0 2.434-2.391 4.415-5.33 4.415H32.458a22.223 22.223 0 0 0-5.911.794l-.431-.906-.364-.923.06-.016a25 25 0 0 1 6.647-.892h15.483a2.516 2.516 0 1 0 0-4.944h-11.1a17.857 17.857 0 0 1-8.132-1.889 44.873 44.873 0 0 0-12.2-4.16c-7.556-1.388-12.993 3.415-14.162 4.56v8.245zm0 0" class="cls-1" data-name="Path 13" transform="translate(0 -155.383)"/>
        <path id="Path_14" d="M231.424 105.12a10.16 10.16 0 0 1-4.467-1.233.87.87 0 0 1-.428-.483c-.067-.188-1.614-4.637.844-7.927 1.786-2.392 5.145-3.469 9.989-3.2a.864.864 0 0 1 .816.821c.017.344.374 8.457-3.762 11.158a5.351 5.351 0 0 1-2.991.862zm-3.363-2.622c2.274 1.066 4.091 1.171 5.409.311 2.453-1.6 2.983-6.358 3-8.833-3.8-.093-6.379.763-7.706 2.538-1.583 2.114-.969 5.022-.703 5.986zm0 0" class="cls-1" data-name="Path 14" transform="translate(-184.124 -74.596)"/>
        <path id="Path_15" d="M106.179 13.643a8.1 8.1 0 0 1-4.851-1.461c-2.621-1.92-3.828-5.576-3.58-10.867a.866.866 0 0 1 .814-.824C98.936.47 107.8 0 110.78 4.473c1.389 2.084 1.275 4.812-.337 8.112a.864.864 0 0 1-.479.432 11.953 11.953 0 0 1-3.785.626zm3.486-1.438h.008zM99.451 2.194c-.075 4.237.9 7.126 2.9 8.592 2.4 1.755 5.665 1.009 6.693.709 1.176-2.553 1.276-4.591.3-6.062-1.823-2.736-7.167-3.271-9.888-3.238zm0 0" class="cls-1" data-name="Path 15" transform="translate(-79.349 7)"/>
        <path id="Path_16" d="M149.1 73.958h-.082a.865.865 0 0 1-.783-.905q.077-1.527.257-2.9c.36-6.125.174-20.39-8.844-24.336a.865.865 0 1 1 .694-1.586c5.31 2.322 8.658 8.111 9.658 16.737a45.8 45.8 0 0 1 .209 2.278c2.375-6 6.009-8.123 6.225-8.244a.865.865 0 0 1 .851 1.507c-.092.053-5.664 3.4-7.062 13.71-.106 1.764-.26 2.889-.274 2.992a.865.865 0 0 1-.856.747zm0 0" class="cls-1" data-name="Path 16" transform="translate(-111.845 -26.149)"/>
    </g>
</svg>
