<svg xmlns="http://www.w3.org/2000/svg" width="71.883" height="44.926" viewBox="0 0 71.883 44.926">
    <defs>
        <style>
            .cls-1{fill:#f9b845}
        </style>
    </defs>
    <g id="hand-shake" transform="translate(0 -96.004)">
        <g id="Group_60" data-name="Group 60" transform="translate(10.479 99.184)">
            <g id="Group_59" data-name="Group 59">
                <path id="Path_28" d="M120.92 146.281c-1.411-2.941-6.457-7.024-11.333-10.968-2.72-2.2-5.289-4.277-6.928-5.915a1.5 1.5 0 0 0-1.566-.35c-1.009.365-1.632.647-2.124.866a4.953 4.953 0 0 1-2.01.551 1.5 1.5 0 0 0-1.1.656c-2.118 3.166-4.31 2.9-5.775 2.405-.467-.156-.551-.356-.6-.548-.314-1.315 1.264-4.376 3.31-6.422 4.867-4.87 7.377-6.089 12.678-3.72 6.014 2.69 12.04 4.8 12.1 4.816a1.5 1.5 0 1 0 .985-2.83c-.06-.021-5.966-2.085-11.861-4.723-6.868-3.07-10.636-1.048-16.018 4.337-2.049 2.049-4.831 6.194-4.112 9.234a3.7 3.7 0 0 0 2.573 2.7c3.394 1.12 6.49.048 8.8-3.013a7.56 7.56 0 0 0 2.249-.713 27.68 27.68 0 0 1 1.048-.449c1.713 1.608 4.025 3.48 6.46 5.448 4.4 3.561 9.4 7.6 10.519 9.935a1.755 1.755 0 0 1-.446 2.249 1.65 1.65 0 0 1-1.845.362 1.5 1.5 0 0 0-2.339 1.393 1.809 1.809 0 0 1-1.147 1.686 2.3 2.3 0 0 1-2.333.054 1.5 1.5 0 0 0-2.513.955 2.846 2.846 0 0 1-1.767 2.294 1.579 1.579 0 0 1-1.719-.267 1.515 1.515 0 0 0-1.369-.347 1.5 1.5 0 0 0-1.051.943c-.057.15-.186.509-1.587.509a8.623 8.623 0 0 1-3.669-1.255c-1.051-.692-7.644-5.61-13.337-10.378-.8-.674-2.183-2.118-3.405-3.394-1.084-1.132-2.076-2.159-2.585-2.591a1.5 1.5 0 0 0-1.935 2.288c.464.392 1.363 1.342 2.354 2.375 1.336 1.4 2.717 2.839 3.645 3.618 5.577 4.669 12.28 9.71 13.616 10.588a11.49 11.49 0 0 0 5.317 1.74 5.154 5.154 0 0 0 3.4-1 4.662 4.662 0 0 0 3.405-.036 5.9 5.9 0 0 0 3.118-2.878 5.791 5.791 0 0 0 3.759-.542 5.081 5.081 0 0 0 2.5-2.612 4.9 4.9 0 0 0 3.435-1.231 4.761 4.761 0 0 0 1.203-5.82z" class="cls-1" data-name="Path 28" transform="translate(-74.642 -118.658)"/>
            </g>
        </g>
        <g id="Group_62" data-name="Group 62" transform="translate(14.975 101.993)">
            <g id="Group_61" data-name="Group 61">
                <path id="Path_29" d="M121.642 138.663h-13.478a1.5 1.5 0 1 0 0 3h13.478a1.5 1.5 0 1 0 0-3z" class="cls-1" data-name="Path 29" transform="translate(-106.666 -138.663)"/>
            </g>
        </g>
        <g id="Group_64" data-name="Group 64" transform="translate(54.026 122.956)">
            <g id="Group_63" data-name="Group 63">
                <path id="Path_30" d="M391.93 288.642a1.494 1.494 0 0 0-2.079-.407l-4.379 2.941a1.5 1.5 0 0 0 1.671 2.486l4.379-2.941a1.5 1.5 0 0 0 .408-2.079z" class="cls-1" data-name="Path 30" transform="translate(-384.811 -287.977)"/>
            </g>
        </g>
        <g id="Group_66" data-name="Group 66" transform="translate(40.436 121.459)">
            <g id="Group_65" data-name="Group 65">
                <path id="Path_31" d="M299.428 286.625c-1.072-.845-5.867-5.754-8.833-8.845a1.5 1.5 0 1 0-2.162 2.073c.77.8 7.56 7.88 9.138 9.126a1.492 1.492 0 0 0 .925.321 1.513 1.513 0 0 0 1.18-.572 1.5 1.5 0 0 0-.248-2.103z" class="cls-1" data-name="Path 31" transform="translate(-288.016 -277.317)"/>
            </g>
        </g>
        <g id="Group_68" data-name="Group 68" transform="translate(35.942 125.955)">
            <g id="Group_67" data-name="Group 67">
                <path id="Path_32" d="M265.927 317.153c-1.794-1.435-6.3-6.224-7.32-7.332a1.5 1.5 0 0 0-2.207 2.028c.054.057 5.433 5.864 7.656 7.644a1.5 1.5 0 0 0 1.872-2.339z" class="cls-1" data-name="Path 32" transform="translate(-256.005 -309.337)"/>
            </g>
        </g>
        <g id="Group_70" data-name="Group 70" transform="translate(29.952 128.946)">
            <g id="Group_69" data-name="Group 69">
                <path id="Path_33" d="M223.294 338.485c-2.136-1.8-6.505-6.451-7.359-7.365a1.5 1.5 0 0 0-2.189 2.046c1.228 1.315 5.409 5.748 7.617 7.611a1.5 1.5 0 1 0 1.932-2.291z" class="cls-1" data-name="Path 33" transform="translate(-213.343 -330.644)"/>
            </g>
        </g>
        <g id="Group_72" data-name="Group 72" transform="translate(0 96.003)">
            <g id="Group_71" data-name="Group 71">
                <path id="Path_34" d="M17.5 99.408c-2.567-2.432-12.831-3.22-15.916-3.4A1.5 1.5 0 0 0 0 97.5v26.956a1.5 1.5 0 0 0 1.5 1.5h8.985a1.5 1.5 0 0 0 1.423-1.033c.219-.671 5.379-16.509 6.059-24.3a1.49 1.49 0 0 0-.467-1.215zm-8.11 23.551H3V99.105c4.813.38 10.007 1.207 11.894 2.123-.794 6.56-4.394 18.214-5.504 21.731z" class="cls-1" data-name="Path 34" transform="translate(0 -96.003)"/>
            </g>
        </g>
        <g id="Group_74" data-name="Group 74" transform="translate(50.97 98.998)">
            <g id="Group_73" data-name="Group 73">
                <path id="Path_35" d="M382.461 117.33c-11.759 0-18.282 3.01-18.555 3.136a1.49 1.49 0 0 0-.8.932 1.51 1.51 0 0 0 .165 1.216c1.851 2.98 7.646 19.531 8.761 23.568a1.5 1.5 0 0 0 1.444 1.1h8.985a1.5 1.5 0 0 0 1.5-1.5v-26.955a1.5 1.5 0 0 0-1.5-1.497zm-1.5 26.956H374.6c-1.42-4.624-5.613-16.683-7.952-21.667a48.777 48.777 0 0 1 14.32-2.276z" class="cls-1" data-name="Path 35" transform="translate(-363.046 -117.33)"/>
            </g>
        </g>
    </g>
</svg>
