<svg xmlns="http://www.w3.org/2000/svg" width="55.75" height="85.847" viewBox="0 0 55.75 85.847">
    <defs>
        <style>
            .cls-1{opacity:.3}.cls-2{fill:#2c4566}
        </style>
    </defs>
    <g id="idea" class="cls-1">
        <g id="Group_178" data-name="Group 178">
            <g id="Group_177" data-name="Group 177">
                <path id="Path_246" d="M128.547 33.636c-15.37 0-27.875 13.08-27.875 29.157a39.088 39.088 0 0 0 7.346 22.073 27.972 27.972 0 0 1 5.48 16.194v13.975a4.451 4.451 0 0 0 4.446 4.446h21.206a4.451 4.451 0 0 0 4.446-4.446v-13.974a27.975 27.975 0 0 1 5.48-16.194 39.088 39.088 0 0 0 7.346-22.073c-.001-16.078-12.505-29.158-27.875-29.158zm10.6 81.4h-21.204v-2.906h10.6a2.223 2.223 0 1 0 0-4.446h-10.6v-2.907h21.207v10.26zM125.43 73.567l-2.973-6.351h12.179l-2.972 6.351a2.227 2.227 0 0 0-.2.8l-1.724 25.97h-2.377l-1.724-25.97a2.228 2.228 0 0 0-.209-.8zm20.025 8.721a32.546 32.546 0 0 0-6.3 18.044h-4.968l1.676-25.259 4.277-9.137a2.223 2.223 0 0 0-2.013-3.165h-19.165a2.223 2.223 0 0 0-2.013 3.165l4.277 9.137 1.676 25.259h-4.969a32.544 32.544 0 0 0-6.3-18.044 35.043 35.043 0 0 1-6.521-19.494c0-13.626 10.51-24.712 23.429-24.712s23.429 11.086 23.429 24.712a35.039 35.039 0 0 1-6.515 19.494z" class="cls-2" data-name="Path 246" transform="translate(-100.672 -33.636)"/>
            </g>
        </g>
    </g>
</svg>
