<svg xmlns="http://www.w3.org/2000/svg" width="106.194" height="102.718" viewBox="0 0 106.194 102.718">
    <defs>
        <style>
            .cls-1{opacity:.3}.cls-2{fill:#2c4566}
        </style>
    </defs>
    <g id="megaphone" class="cls-1" transform="rotate(-30 75.776 20.304)">
        <g id="Group_122" data-name="Group 122">
            <g id="Group_121" data-name="Group 121">
                <path id="Path_46" d="M71.3 17.086V4.019a4.017 4.017 0 0 0-5.986-3.5 93.463 93.463 0 0 1-38.99 11.707c-.106.008-12.59.062-12.59.062A6.138 6.138 0 0 0 7.65 17.7H5.088A5.094 5.094 0 0 0 0 22.784v11.178a5.094 5.094 0 0 0 5.088 5.088H7.65a6.144 6.144 0 0 0 3.614 4.885L20.383 69.1a3.992 3.992 0 0 0 3.74 2.619h9.151a3.98 3.98 0 0 0 3.741-5.339L29.18 44.77a93.335 93.335 0 0 1 36.137 11.45 3.992 3.992 0 0 0 4.005-.039A3.975 3.975 0 0 0 71.3 52.72V39.653a11.378 11.378 0 0 0 0-22.567zM7.606 35.125H5.088a1.165 1.165 0 0 1-1.164-1.164V22.784a1.165 1.165 0 0 1 1.164-1.164h2.518zm5.231 5.214a2.208 2.208 0 0 1-1.307-2.013V18.418a2.208 2.208 0 0 1 2.206-2.206h10.681v24.321s-10.774 0-10.82-.007a2.057 2.057 0 0 1-.76-.186zM33.325 67.72a.044.044 0 0 1-.007.051.045.045 0 0 1-.046.024h-9.149a.056.056 0 0 1-.052-.034l-8.444-23.3h9.265zm34.054-15a.071.071 0 0 1-.042.076.091.091 0 0 1-.1 0 97.268 97.268 0 0 0-38.897-12.05V15.995A97.3 97.3 0 0 0 67.232 3.944a.092.092 0 0 1 .105 0 .071.071 0 0 1 .042.076zM71.3 35.681V21.058a7.457 7.457 0 0 1 0 14.623z" class="cls-2" data-name="Path 46"/>
            </g>
        </g>
    </g>
</svg>
