<svg xmlns="http://www.w3.org/2000/svg" width="28.335" height="30.039" viewBox="0 0 28.335 30.039">
    <defs>
        <style>
            .cls-1{fill:#f9b845;stroke:#f9b845;stroke-width:.5px}
        </style>
    </defs>
    <g id="fdggfhg" transform="translate(-14.518 .25)">
        <g id="Group_12" data-name="Group 12" transform="translate(14.769)">
            <g id="Group_11" data-name="Group 11">
                <path id="Path_1" d="M42.445 7.994L34.919.174A.568.568 0 0 0 34.51 0H23.294a2.279 2.279 0 0 0-2.276 2.276v7.949h-4.546a1.7 1.7 0 0 0-1.7 1.7v8.524a1.7 1.7 0 0 0 1.7 1.7h4.545v5.113a2.277 2.277 0 0 0 2.276 2.272h17.034a2.276 2.276 0 0 0 2.276-2.27V8.388a.568.568 0 0 0-.158-.394zm-7.794-6.46l6.178 6.419h-6.178zM16.472 21.018a.567.567 0 0 1-.567-.567v-8.523a.567.567 0 0 1 .567-.567h15.34a.567.567 0 0 1 .567.567v8.524a.567.567 0 0 1-.567.567zm25 6.25a1.139 1.139 0 0 1-1.14 1.134H23.294a1.139 1.139 0 0 1-1.14-1.135v-5.113h9.658a1.7 1.7 0 0 0 1.7-1.7v-8.526a1.7 1.7 0 0 0-1.7-1.7h-9.658V2.276a1.141 1.141 0 0 1 1.14-1.139h10.221v7.384a.568.568 0 0 0 .568.568h7.385z" class="cls-1" data-name="Path 1" transform="translate(-14.769)"/>
            </g>
        </g>
        <g id="Group_14" data-name="Group 14" transform="translate(18.105 13.866)">
            <g id="Group_13" data-name="Group 13">
                <path id="Path_2" d="M76.051 240.9a1.279 1.279 0 0 0-.7-.478 5.735 5.735 0 0 0-1.172-.073H72.6v4.879h.985v-1.841h.642a5.622 5.622 0 0 0 1.022-.07 1.427 1.427 0 0 0 .511-.231 1.338 1.338 0 0 0 .414-.481 1.592 1.592 0 0 0 .163-.756 1.515 1.515 0 0 0-.286-.949zm-.844 1.343a.647.647 0 0 1-.308.24 2.547 2.547 0 0 1-.779.077h-.539v-1.385h.476a4.733 4.733 0 0 1 .709.033.681.681 0 0 1 .4.216.63.63 0 0 1 .156.439.656.656 0 0 1-.115.377z" class="cls-1" data-name="Path 2" transform="translate(-72.596 -240.346)"/>
            </g>
        </g>
        <g id="Group_16" data-name="Group 16" transform="translate(22.648 13.866)">
            <g id="Group_15" data-name="Group 15">
                <path id="Path_3" d="M155.277 241.679a2.132 2.132 0 0 0-.466-.791 1.632 1.632 0 0 0-.736-.449 3.517 3.517 0 0 0-.929-.093h-1.8v4.879h1.854a2.979 2.979 0 0 0 .872-.1 1.731 1.731 0 0 0 .692-.389 2.151 2.151 0 0 0 .523-.862 3.207 3.207 0 0 0 .15-1.038 3.6 3.6 0 0 0-.16-1.157zm-.959 2a1.033 1.033 0 0 1-.258.471.909.909 0 0 1-.4.2 2.683 2.683 0 0 1-.6.047h-.736v-3.232h.443a4.463 4.463 0 0 1 .809.047.937.937 0 0 1 .456.23 1.117 1.117 0 0 1 .28.473 2.915 2.915 0 0 1 .1.869 3.183 3.183 0 0 1-.094.899z" class="cls-1" data-name="Path 3" transform="translate(-151.346 -240.346)"/>
            </g>
        </g>
        <g id="Group_18" data-name="Group 18" transform="translate(27.581 13.866)">
            <g id="Group_17" data-name="Group 17">
                <path id="Path_4" d="M240.191 241.171v-.825h-3.345v4.879h.985v-2.074h2.037v-.825h-2.037v-1.155z" class="cls-1" data-name="Path 4" transform="translate(-236.846 -240.346)"/>
            </g>
        </g>
    </g>
</svg>
