<svg xmlns="http://www.w3.org/2000/svg" width="50.923" height="38.789" viewBox="0 0 50.923 38.789">
    <defs>
        <style>
            .cls-1{fill:#f9b845}
        </style>
    </defs>
    <g id="safety" transform="translate(0 -61)">
        <g id="Group_44" data-name="Group 44" transform="translate(0 61)">
            <path id="Path_21" d="M47.939 91.094v-4.732a22.061 22.061 0 0 0-4.58-13.5 22.806 22.806 0 0 0-10.443-7.6A4.481 4.481 0 0 0 28.445 61h-5.967a4.481 4.481 0 0 0-4.47 4.257 22.806 22.806 0 0 0-10.443 7.6 22.061 22.061 0 0 0-4.58 13.5v4.732a4.475 4.475 0 0 0 1.492 8.695h41.97a4.475 4.475 0 0 0 1.492-8.695zM5.967 86.362a19.418 19.418 0 0 1 6.067-14.009v5.058a1.492 1.492 0 1 0 2.984 0v-7.4A19.406 19.406 0 0 1 18 68.453v11.941a1.492 1.492 0 1 0 2.984 0v-14.03-.888a1.494 1.494 0 0 1 1.492-1.492h5.967a1.494 1.494 0 0 1 1.492 1.492V80.395a1.492 1.492 0 1 0 2.984 0V68.453a19.422 19.422 0 0 1 2.981 1.56v7.4a1.492 1.492 0 1 0 2.984 0v-5.06a19.418 19.418 0 0 1 6.067 14.009v4.476H5.967zM46.447 96.8H4.476a1.492 1.492 0 1 1 0-2.984h41.971a1.492 1.492 0 0 1 0 2.984z" class="cls-1" data-name="Path 21" transform="translate(0 -61)"/>
        </g>
    </g>
</svg>
