<svg xmlns="http://www.w3.org/2000/svg" width="17.15" height="10.224" viewBox="0 0 17.15 10.224">
  <g id="eye" transform="translate(0 -98.725)">
    <path id="Path_285" data-name="Path 285" d="M8.575,98.725c-3.277,0-6.248,1.793-8.441,4.7a.679.679,0,0,0,0,.81c2.193,2.915,5.164,4.708,8.441,4.708s6.248-1.793,8.441-4.7a.679.679,0,0,0,0-.81C14.823,100.518,11.852,98.725,8.575,98.725Zm.235,8.711a3.607,3.607,0,1,1,3.364-3.364A3.609,3.609,0,0,1,8.81,107.436ZM8.7,105.773a1.942,1.942,0,1,1,1.814-1.814A1.939,1.939,0,0,1,8.7,105.773Z" transform="translate(0 0)" fill="#2c4566"/>
  </g>
</svg>
