<svg xmlns="http://www.w3.org/2000/svg" width="27.563" height="31.123" viewBox="0 0 27.563 31.123">
    <defs>
        <style>
            .cls-1{fill:#f9b845}
        </style>
    </defs>
    <g id="xlsx-file-format-extension" transform="translate(-31.36)">
        <path id="Path_287" d="M57.179 11.133h-.747V7.527a.6.6 0 0 0-.006-.068.6.6 0 0 0-.145-.4l-6-6.855a.6.6 0 0 0-.122-.1l-.04-.024a.641.641 0 0 0-.12-.051L49.96.017A.606.606 0 0 0 49.82 0H35.072a1.222 1.222 0 0 0-1.22 1.221v9.912H33.1a1.744 1.744 0 0 0-1.744 1.745v9.072a1.745 1.745 0 0 0 1.744 1.743h.747V29.9a1.222 1.222 0 0 0 1.22 1.22h20.144a1.222 1.222 0 0 0 1.22-1.22v-6.21h.747a1.745 1.745 0 0 0 1.744-1.744v-9.069a1.744 1.744 0 0 0-1.743-1.744zM35.072 1.221h14.137v6.244a.61.61 0 0 0 .61.61h5.391v3.057H35.072zm12.364 16.64c-1.2-.418-1.982-1.081-1.982-2.131 0-1.232 1.028-2.174 2.731-2.174a4.417 4.417 0 0 1 1.842.364l-.364 1.317a3.435 3.435 0 0 0-1.51-.343c-.707 0-1.049.321-1.049.7 0 .461.407.664 1.338 1.017 1.274.471 1.874 1.135 1.874 2.153 0 1.21-.932 2.238-2.913 2.238a4.718 4.718 0 0 1-2.045-.439l.332-1.349a4.169 4.169 0 0 0 1.81.45c.75 0 1.146-.31 1.146-.782 0-.453-.346-.71-1.21-1.021zm-2.762 1.66v1.371h-4.509v-7.219H41.8v5.848zm-9.745 1.371h-1.863l2.088-3.653-2.014-3.566h1.874l.631 1.317c.214.439.375.792.547 1.2h.021c.172-.461.311-.782.492-1.2l.611-1.317h1.864L37.145 17.2l2.142 3.7H37.4l-.654-1.307c-.267-.5-.439-.878-.642-1.3h-.021c-.15.418-.332.793-.557 1.3zm20.281 8.68H35.072v-5.879h20.139v5.879zm.011-8.68l-.653-1.307c-.268-.5-.439-.878-.643-1.3H53.9c-.15.418-.333.793-.558 1.3l-.6 1.307h-1.858l2.088-3.653-2.013-3.566h1.874l.632 1.317c.214.439.374.792.546 1.2h.021c.171-.461.31-.782.492-1.2l.61-1.317H57L54.964 17.2l2.142 3.7h-1.884z" class="cls-1" data-name="Path 287"/>
    </g>
</svg>
